<svg xmlns="http://www.w3.org/2000/svg" viewBox="254 214 536 618">
  <defs>
    <linearGradient id="clay" x1="0" y1="0" x2="0.15" y2="1">
      <stop offset="0" stop-color="#F49B64"/>
      <stop offset="0.45" stop-color="#E5824E"/>
      <stop offset="1" stop-color="#C9612F"/>
    </linearGradient>
    <linearGradient id="cube" x1="0" y1="0" x2="0" y2="1">
      <stop offset="0" stop-color="#454D58"/>
      <stop offset="1" stop-color="#323841"/>
    </linearGradient>
    <clipPath id="cubeClip"><path d="M326 412L670 412Q704 412 704 446L704 790Q704 824 670 824L326 824Q292 824 292 790L292 446Q292 412 326 412Z"/></clipPath>
  </defs>
  <path d="M326 412L670 412Q704 412 704 446L704 790Q704 824 670 824L326 824Q292 824 292 790L292 446Q292 412 326 412Z" fill="url(#cube)"/>
  <path d="M326 415L670 415" stroke="#66707D" stroke-width="10" stroke-linecap="round"/>
  <path d="M302 423C268 423 246 402 248 370C250 306 314 254 408 240C508 226 628 236 692 276C740 308 762 366 764 436C766 500 762 558 740 590C720 618 688 618 678 596C670 576 674 540 670 500C666 462 648 434 608 426C548 422 372 423 302 423Z" fill="#15181C" opacity="0.45" clip-path="url(#cubeClip)"/>
  <path d="M318 413C284 413 262 392 264 360C266 296 330 244 424 230C524 216 644 226 708 266C756 298 778 356 780 426C782 490 778 548 756 580C736 608 704 608 694 586C686 566 690 530 686 490C682 452 664 424 624 416C564 412 388 413 318 413ZM449.97 308.98C449.23 319.44 442.39 327.49 434.67 326.95C426.96 326.41 421.3 317.49 422.03 307.02C422.77 296.56 429.61 288.51 437.33 289.05C445.04 289.59 450.7 298.51 449.97 308.98ZM517.97 308.98C517.23 319.44 510.39 327.49 502.67 326.95C494.96 326.41 489.3 317.49 490.03 307.02C490.77 296.56 497.61 288.51 505.33 289.05C513.04 289.59 518.7 298.51 517.97 308.98ZM441 347.4C459.6 358.6 484.4 358.6 501.76 346C506.72 342.64 512.92 348.8 509.2 357.2C501.76 374 465.8 380.16 439.76 363.36C432.32 357.76 433.56 342.64 441 347.4Z" fill="url(#clay)" fill-rule="evenodd"/>
  <path d="M449.97 308.98C449.23 319.44 442.39 327.49 434.67 326.95C426.96 326.41 421.3 317.49 422.03 307.02C422.77 296.56 429.61 288.51 437.33 289.05C445.04 289.59 450.7 298.51 449.97 308.98ZM517.97 308.98C517.23 319.44 510.39 327.49 502.67 326.95C494.96 326.41 489.3 317.49 490.03 307.02C490.77 296.56 497.61 288.51 505.33 289.05C513.04 289.59 518.7 298.51 517.97 308.98ZM441 347.4C459.6 358.6 484.4 358.6 501.76 346C506.72 342.64 512.92 348.8 509.2 357.2C501.76 374 465.8 380.16 439.76 363.36C432.32 357.76 433.56 342.64 441 347.4Z" fill="#1C1F24"/>
  <path d="M300 344C318 292 372 262 440 250" fill="none" stroke="#FFD2B0" stroke-width="16" stroke-linecap="round" opacity="0.75"/>
  <path d="M640 252C690 262 730 290 750 330" fill="none" stroke="#FFD2B0" stroke-width="9" stroke-linecap="round" opacity="0.4"/>
</svg>
