<svg width="180" height="181" viewBox="0 0 180 181" fill="none" xmlns="http://www.w3.org/2000/svg">
<mask id="mask0_4209_3110" style="mask-type:alpha" maskUnits="userSpaceOnUse" x="0" y="0" width="180" height="181">
<rect y="0.492188" width="180" height="180" fill="#D9D9D9"/>
</mask>
<g mask="url(#mask0_4209_3110)">
<path d="M71.2391 17.1605L61.3763 17.2354L43.1994 26.4969L30.7434 58.5238L36.0948 97.5663L68.0682 135.42L108.114 148.432L141.085 139.058L157.212 119.702L163.172 108.931L165.072 99.2996L163.124 86.3689L161.955 78.6104L159.072 72.3445L153.464 64.3732L144.508 54.0847L138.418 47.5965L129.862 41.1271L122.177 35.7606L115.113 31.0059L107.558 26.5015L94.951 22.4053L80.8703 19.0601L71.2391 17.1605Z" fill="#FC6703"/>
<path d="M67.8096 20.1488L57.9468 20.2237L39.7699 29.4852L27.3139 61.5121L32.6653 100.555L64.6387 138.409L104.684 151.42L137.655 142.046L153.783 122.691L159.934 111.204L161.642 102.288L160.918 88.115L158.526 81.5987L155.643 75.3328L150.034 67.3614L141.19 55.4694L134.988 50.5848L126.914 42.6322L118.747 38.7489L112.657 32.2607L104.128 29.4898L91.5215 25.3936L77.4408 22.0483L67.8096 20.1488Z" fill="white"/>
<path d="M54.4705 18.3059C55.8751 17.6913 62.5293 16.8585 64.0255 17.1672C64.0254 20.752 58.5672 22.3115 51.6615 27.2316C49.8802 29.0401 47.8679 31.104 45.7628 32.4888C43.3986 34.0442 41.451 35.666 40.5074 38.57C39.0321 43.1104 37.5831 47.7002 37.7981 52.5156C38.0042 57.1333 38.0435 62.203 38.8239 66.741C39.0881 68.2772 39.4932 69.8157 39.7904 71.3365C40.1821 73.3415 41.507 75.4847 41.5834 77.4532C41.6482 79.1203 41.0466 80.477 41.4895 82.228C42.0058 84.2689 42.7297 86.2067 43.2476 88.2422C44.052 91.4035 44.9075 94.678 46.3191 97.6438C47.0949 99.2738 47.5426 100.873 48.4514 102.436C49.3558 103.991 50.239 105.419 50.85 107.11C52.1625 110.74 55.1114 114.271 57.7117 116.832C58.5877 117.695 59.2959 118.822 60.3481 119.442C61.7083 120.244 63.3584 121.261 64.5345 122.328C65.6017 123.297 67.2855 124.301 67.9841 125.59C68.8125 127.117 70.1771 128.772 71.53 129.816C74.0763 131.781 77.3068 133.128 80.3987 134.133C84.4544 135.45 87.9567 138.343 91.5916 140.548C93.8903 141.942 96.583 141.582 99.0569 142.245C101.094 142.79 103.633 142.502 105.536 143.12C106.864 143.552 109.171 142.818 110.561 142.726C112.032 142.628 114.136 142.888 115.51 142.353C116.843 141.833 118.396 142.891 119.58 142.445C119.753 142.38 120.747 142.406 120.956 142.414C121.871 142.447 122.483 142.03 123.376 141.765C126.222 140.922 128.894 139.734 131.829 139.16C133.132 138.906 134.205 138.683 135.405 138.249C136.72 137.774 137.292 138.222 138.268 137.358C140.062 135.769 142.052 134.163 143.626 132.221C145.146 130.347 147.524 129.03 148.71 127.018C149.666 125.398 151.525 123.993 152.965 122.684C154.312 121.46 156.502 120.286 157.194 118.501C157.57 117.531 158.074 117.054 157.625 118.436C156.604 121.577 154.873 125.172 153.005 127.89C151.16 130.574 148.997 134.299 146.453 136.419C142.181 139.978 139.343 144.504 135.075 148.026C133.408 149.401 134.048 149.184 132.968 150.165C132.225 150.84 131.364 151.388 130.612 152.088C128.14 154.388 124.453 155.193 121.899 157.455C119.794 159.32 116.606 159.989 114.11 160.891C111.316 161.901 108.066 162.852 105.092 163.062L105.043 163.066C104.518 163.103 103.095 163.204 102.621 163.096C102.515 163.13 102.407 163.158 102.298 163.179C100.137 163.602 97.3907 163.729 95.2182 163.521C88.9363 162.919 82.6015 165.183 76.3655 163.157C70.8938 161.379 65.294 159.79 60.0954 157.438C58.3102 156.63 56.7998 155.57 54.912 154.957C53.472 154.489 51.7597 154.14 50.4275 153.409C47.8408 151.987 45.5701 150.3 43.0965 148.635C41.3203 147.44 40.246 145.393 38.6833 143.854C36.7828 141.982 34.8849 140.273 33.0933 138.348C32.2933 137.488 31.9672 136.304 31.1671 135.445C30.5924 134.827 29.2967 133.955 29.02 133.221C28.6283 132.182 27.4369 131.437 27.1695 130.365C26.8739 129.18 26.1395 127.785 25.648 126.637C24.8257 124.717 23.8031 122.475 22.3579 120.922C20.7367 119.18 21.5352 115.96 20.8125 114.043C20.1053 112.168 19.6081 108.982 18.351 107.391C17.6137 106.457 16.6566 102.311 16.8792 101.196C17.2634 99.2718 17.4055 96.31 17.0198 94.4552C16.4786 91.8518 15.1989 89.2452 15.4532 86.5902C15.5651 85.4221 14.974 84.0531 15.0955 82.7846C15.1969 81.7264 15.8305 80.6545 16.099 79.6262C16.6816 77.3949 16.1924 74.5924 16.8781 72.1817C17.5547 69.8034 17.6031 67.4272 18.3922 64.9988L20.4403 58.6954C21.0708 56.7549 21.3736 54.5613 22.0573 52.457C22.8745 49.9421 24.4918 47.7659 25.6066 45.3888C28.2168 39.8229 31.2013 35.0218 35.4122 30.5605C38.8246 26.9453 43.2461 23.7852 47.2379 21.0801C49.3013 19.6818 52.2091 19.2955 54.4705 18.3059Z" fill="#FC6703"/>
<path d="M60.0652 32.6292C58.1878 33.8643 55.584 33.8042 54.1196 35.788C53.1433 37.1105 50.7406 41.4608 50.0966 43.1229C49.5032 44.6542 49.4129 46.214 49.0216 47.6928C48.6924 48.9371 47.3822 51.1108 47.8375 52.3184C48.0209 52.8048 47.4277 54.2855 47.4185 54.8696C47.405 55.7321 47.2994 56.5564 47.4105 57.4177C47.66 59.3531 47.3093 61.8506 48.0196 63.6735C48.7401 65.5225 48.1926 68.4645 48.4959 70.4782C48.7332 72.0534 49.6908 73.2273 50.0072 74.6587C50.5149 76.9555 51.6037 79.4982 52.2674 81.8609C52.7816 83.6913 52.6321 85.1911 53.4018 86.9209C54.8199 90.1079 56.1066 93.3156 57.8848 96.3939C58.6558 97.7287 60.2047 99.1544 60.6021 100.647C60.9165 101.829 63.3429 105.269 64.1909 106.004C65.6619 107.279 67.468 109.52 68.5036 111.095C69.3214 112.338 71.4303 112.944 72.5536 114.05C73.4547 114.938 74.8746 115.461 75.5448 116.48C76.211 117.492 78.3593 117.674 79.3001 118.52C81.6808 120.66 84.7945 121.782 87.3938 123.609C88.5494 124.421 90.4345 125.452 91.7404 125.932C94.5508 126.966 96.8421 129.141 99.7043 130.16C102.125 131.021 104.488 132.048 106.964 131.789C108.208 131.659 110.68 131.676 111.801 132.04C113.301 132.528 115.073 131.517 116.576 131.223C118.564 130.835 120.76 130.742 122.593 129.808C125.575 128.288 128.855 127.267 131.851 125.847C135.935 123.911 140.139 121.291 143.882 119.098C145.167 118.345 146.035 116.305 147.1 115.224C148.028 114.281 148.742 113.077 149.425 112.062C151.694 108.692 150.878 105.136 152.077 101.446C153.109 98.2718 153.053 95.336 152.431 92.1556C152.159 90.7586 152.532 87.4897 151.833 86.4271C151.208 85.4771 150.759 84.0096 150.327 82.8631C149.814 81.5026 148.683 80.4806 148.045 79.2296C147.252 77.6715 146.636 75.9902 145.859 74.4653C144.555 71.9077 143.013 69.2331 140.838 67.2772C139.684 66.2394 138.344 65.0194 137.408 63.8853C136.49 62.7724 134.396 61.6688 133.881 60.3024C133.511 59.3217 131.678 57.4764 130.896 56.8729C129.644 55.9074 128.065 54.5183 126.682 54.0692C124.771 53.4483 123.423 51.539 122.261 50.0136C121.011 48.3726 119.134 47.488 117.806 46.0611C116.877 45.0627 114.689 43.6135 113.408 43.1971C111.894 42.7051 110.988 41.5909 109.57 41.1303C108.015 40.6252 106.736 39.7997 105.241 39.3138C103.99 38.9075 101.49 38.1458 100.601 37.1914C100.09 36.642 99.134 36.5097 98.4368 36.2832C97.0268 35.8251 98.3051 35.4667 98.2591 35.4284C97.2804 34.6129 94.016 35.5313 94.0758 33.8642C94.1263 32.4578 87.1806 30.9861 85.9204 30.5767C82.7345 29.5415 79.6993 28.6474 76.4236 28.3337C73.2573 28.0304 71.0459 29.2911 67.8509 29.6248C64.9098 29.932 62.4966 31.0296 60.0652 32.6292Z" fill="#FF960C"/>
<path d="M100.755 59.0713C101.084 59.9442 100.858 62.2588 100.553 63.1962L100.312 63.9385C98.8898 65.3824 98.0245 66.1025 96.1965 66.7918C94.0909 67.5857 93.0846 67.3293 90.8386 66.5996C88.7594 65.924 87.605 63.6304 85.5084 62.818C83.6178 62.0855 82.1901 60.51 80.2255 59.8717C75.9156 58.4714 72.5378 55.9983 68.5537 54.4396C68.0101 54.227 66.6037 52.8921 66.3799 52.2986C66.1502 51.6896 64.2975 50.8253 63.7415 50.3254C62.0912 48.8414 61.0503 47.1854 59.5142 45.6724C58.849 45.0172 56.4755 41.6148 55.4457 42.0731C53.462 42.9557 52.8424 44.5206 53.8351 46.469C55.4623 49.6624 58.6039 52.0014 60.4357 55.1725C62.4636 58.6831 67.4891 59.6577 70.4906 62.3566C71.9959 63.7103 74.5205 64.869 76.4059 65.5995C78.3272 66.344 79.9398 67.5676 81.9122 68.2084C84.1455 68.9341 86.2218 69.4219 87.9747 70.9981C89.5056 72.3748 89.8581 73.9717 90.9691 75.6604C92.1299 77.425 91.6785 78.9279 89.5001 78.8498C87.5551 78.78 85.4291 78.6501 83.4841 78.5803C81.6869 78.5159 79.5321 78.9193 77.67 78.7409C75.8013 78.5619 74.2136 80.7664 72.4998 80.7049C71.3727 80.6644 68.5438 81.9956 67.5964 82.6189C65.7528 83.8317 64.0644 83.6843 62.0579 83.8938C60.761 84.0293 56.9096 83.9678 56.399 85.5396C55.9314 86.9786 55.8181 89.6153 57.4303 90.5661C59.3863 91.7196 61.5174 90.8675 63.4813 90.938C64.5958 90.978 68.2137 91.1044 69.1357 90.4978C70.1779 89.8121 72.7007 89.121 74.0531 88.6111C76.0124 87.8723 78.5313 87.6873 80.3748 86.748C81.7113 86.067 84.4772 84.6713 85.9966 84.7258C86.983 84.7612 88.1074 84.6263 89.0046 84.8605C89.8018 85.0687 90.7101 84.29 91.5905 84.4717C95.1205 85.6187 98.6197 87.1655 102.038 88.2761C106.074 89.5875 107.998 90.6892 110.344 94.2543C111.167 95.5054 111.05 97.3226 111.658 98.6896C112.255 100.031 112.554 101.487 113.169 102.87C114.582 106.044 116.56 109.14 117.407 112.537C117.818 114.185 119.968 116.586 121.105 117.838C121.931 118.746 122.201 120.255 122.878 121.283C124.519 123.777 128.012 125.594 130.91 123.688C132.521 122.628 134.175 126.255 135.1 123.41C135.659 121.69 134.608 120.227 133.484 118.99C131.235 116.515 128.983 113.613 127.113 110.771C126.295 109.527 125.707 108.044 125.035 106.725C124.294 105.271 123.049 104.042 122.291 102.554C121.597 101.193 120.5 100.288 120.261 98.7065C120.017 97.0852 119.134 94.5383 118.397 93.0904C117.687 91.6981 117.35 90.143 116.837 88.7802C116.256 87.2416 115.518 86.5309 116.067 84.8407C116.647 83.0548 119.201 83.6043 120.623 84.0664C122.217 84.5844 124.252 84.4913 125.818 84.5475C127.36 84.6028 129.647 84.949 131.051 85.4051C132.767 85.9627 134.693 85.4568 136.233 85.8589C137.695 86.2408 139.871 86.3944 141.441 86.2303C142.231 86.1478 142.975 86.1799 143.686 85.9119C144.448 85.6244 145.217 86.6786 146.031 86.264C147.409 85.5619 146.718 83.1167 145.456 82.7066C143.821 82.1753 141.964 81.9821 140.515 81.5112C139.229 81.0934 136.986 80.2389 135.769 80.6979C134.725 81.0917 132.08 79.5887 131.005 79.2395L130.263 78.9985C128.654 76.9622 122.877 76.1885 120.372 75.3749L115.367 73.7484C113.877 73.2644 113.713 72.0108 113.003 70.9307C112.19 69.6951 112.171 68.3068 110.574 67.6819C109.048 67.085 108.125 65.8392 106.857 65.2443C104.965 64.3572 104.49 58.651 105.007 57.0595C105.903 54.3003 104.183 50.3613 104.461 47.4538C104.518 46.8549 104.193 43.503 103.731 43.3223C103.058 43.0591 102.056 42.5923 101.335 42.5665C100.511 42.5369 100.984 44.1485 100.904 44.4534C100.615 45.56 100.592 47.9921 100.816 49.1391C101.109 50.6391 100.672 52.152 100.974 53.6996C101.29 55.3148 100.213 57.6337 100.755 59.0713Z" fill="white"/>
</g>
</svg>
